<svg height="464pt" viewBox="0 0 464 464" width="464pt" xmlns="http://www.w3.org/2000/svg"><path d="m184 160h96v32h-96zm0 0" fill="#a1d51c"/><path d="m184 384h96v32h-96zm0 0" fill="#7ab92d"/><path d="m208 192h48v192h-48zm0 0" fill="#7ab92d"/><path d="m184 160h96v16h-96zm0 0" fill="#7ab92d"/><path d="m464 160h-464l232-160zm0 0" fill="#a1d51c"/><path d="m102.800781 128 129.199219-89.121094 129.199219 89.121094zm0 0" fill="#7ab92d"/><path d="m0 416h464v48h-464zm0 0" fill="#7ab92d"/><path d="m40 160h96v32h-96zm0 0" fill="#a1d51c"/><path d="m40 384h96v32h-96zm0 0" fill="#7ab92d"/><path d="m64 192h48v192h-48zm0 0" fill="#7ab92d"/><path d="m328 160h96v32h-96zm0 0" fill="#a1d51c"/><path d="m328 384h96v32h-96zm0 0" fill="#7ab92d"/><path d="m352 192h48v192h-48zm0 0" fill="#7ab92d"/><path d="m256 104h-48c-4.417969 0-8-3.582031-8-8s3.582031-8 8-8h48c4.417969 0 8 3.582031 8 8s-3.582031 8-8 8zm0 0" fill="#a1d51c"/><path d="m232 16 208.800781 144h23.199219l-232-160-232 160h23.199219zm0 0" fill="#c4f236"/><path d="m328 160h96v16h-96zm0 0" fill="#7ab92d"/><path d="m40 160h96v16h-96zm0 0" fill="#7ab92d"/><g fill="#a1d51c"><path d="m352 384h72v16h-56c-8.835938 0-16-7.164062-16-16zm0 0"/><path d="m40 416h424v16h-408c-8.835938 0-16-7.164062-16-16zm0 0"/><path d="m208 384h72v16h-56c-8.835938 0-16-7.164062-16-16zm0 0"/><path d="m64 384h72v16h-56c-8.835938 0-16-7.164062-16-16zm0 0"/><path d="m400 208v160c-13.253906 0-24-10.746094-24-24v-112c0-13.253906 10.746094-24 24-24zm0 0"/><path d="m256 208v160c-13.253906 0-24-10.746094-24-24v-112c0-13.253906 10.746094-24 24-24zm0 0"/><path d="m112 208v160c-13.253906 0-24-10.746094-24-24v-112c0-13.253906 10.746094-24 24-24zm0 0"/></g><path d="m288 288c-.035156-2.945312-.273438-5.886719-.71875-8.800781l24-13.839844-20-34.71875-24 13.917969c-4.566406-3.765625-9.730469-6.742188-15.28125-8.796875v-27.761719h-40v27.761719c-5.550781 2.054687-10.714844 5.03125-15.28125 8.796875l-24-13.917969-20 34.71875 24 13.839844c-.957031 5.828125-.957031 11.773437 0 17.601562l-24 13.839844 20 34.71875 24-13.917969c4.566406 3.765625 9.730469 6.742188 15.28125 8.796875v27.761719h40v-27.761719c5.550781-2.054687 10.714844-5.03125 15.28125-8.796875l24 13.917969 20-34.71875-24-13.839844c.445312-2.914062.683594-5.855469.71875-8.800781zm-56 20c-11.046875 0-20-8.953125-20-20s8.953125-20 20-20 20 8.953125 20 20-8.953125 20-20 20zm0 0" fill="#fcbc04"/><path d="m284 312c-13.722656-.085938-27.300781-2.804688-40-8-3.449219 2.617188-7.667969 4.023438-12 4-11.046875 0-20-8.953125-20-20-.078125-1.117188-.078125-2.242188 0-3.359375-15.039062-13.167969-26.117188-30.257813-32-49.359375l-8-4.640625-20 34.71875 24 13.839844c-.960938 5.828125-.960938 11.773437 0 17.601562l-24 13.839844 20 34.71875 24-13.917969c4.566406 3.765625 9.730469 6.742188 15.28125 8.796875v27.761719h40v-27.761719c5.546875-2.054687 10.714844-5.03125 15.277344-8.796875l24 13.917969 20-34.71875-2.71875-1.519531c-7.816406 1.84375-15.8125 2.808594-23.839844 2.878906zm0 0" fill="#e59730"/></svg>