<?xml version="1.0" encoding="iso-8859-1"?>
<!-- Generator: Adobe Illustrator 19.0.0, SVG Export Plug-In . SVG Version: 6.00 Build 0)  -->
<svg version="1.1" id="Capa_1" xmlns="http://www.w3.org/2000/svg" xmlns:xlink="http://www.w3.org/1999/xlink" x="0px" y="0px"
	 viewBox="0 0 512 512" style="enable-background:new 0 0 512 512;" xml:space="preserve">
<path style="fill:#FEC9A3;" d="M203.034,420.458c0,50.556,40.986,91.542,91.542,91.542h137.975V286.985
	c0.009-20.056-6.806-39.512-19.332-55.172l-86.599-108.226H203.034V420.458z"/>
<path style="fill:#4398D1;" d="M114.759,0H291.31c19.5,0,35.31,15.81,35.31,35.31v317.793c0,19.5-15.81,35.31-35.31,35.31H114.759
	c-19.5,0-35.31-15.81-35.31-35.31V35.31C79.448,15.81,95.258,0,114.759,0z"/>
<path style="fill:#3E8CC7;" d="M79.448,341.804v11.299c0,19.5,15.81,35.31,35.31,35.31H291.31c19.5,0,35.31-15.81,35.31-35.31
	V92.954C274.114,201.022,187.162,288.565,79.448,341.804z"/>
<rect x="203.034" y="388.414" style="fill:#F7BB8F;" width="97.103" height="26.483"/>
<rect x="229.517" style="fill:#87CED9;" width="44.138" height="388.414"/>
<g>
	<rect x="114.759" y="35.31" style="fill:#126099;" width="17.655" height="114.759"/>
	<rect x="158.897" y="35.31" style="fill:#126099;" width="17.655" height="70.621"/>
</g>
<rect x="123.586" y="291.31" style="fill:#D9D9D9;" width="52.966" height="52.966"/>
<path style="fill:#FEC9A3;" d="M361.931,326.621L243.288,200.563c-12.156-12.862-32.433-13.444-45.303-1.289
	c-0.203,0.194-0.406,0.388-0.6,0.583l0,0c-11.75,11.785-12.553,30.596-1.854,43.343l78.124,92.248v30.543
	c-0.009,45.365,28.142,85.963,70.621,101.87h17.655V326.621z"/>
<g>
</g>
<g>
</g>
<g>
</g>
<g>
</g>
<g>
</g>
<g>
</g>
<g>
</g>
<g>
</g>
<g>
</g>
<g>
</g>
<g>
</g>
<g>
</g>
<g>
</g>
<g>
</g>
<g>
</g>
</svg>
