<?xml version="1.0" encoding="iso-8859-1"?>
<!-- Generator: Adobe Illustrator 19.0.0, SVG Export Plug-In . SVG Version: 6.00 Build 0)  -->
<svg version="1.1" id="Layer_1" xmlns="http://www.w3.org/2000/svg" xmlns:xlink="http://www.w3.org/1999/xlink" x="0px" y="0px"
	 viewBox="0 0 491.52 491.52" style="enable-background:new 0 0 491.52 491.52;" xml:space="preserve">
<polygon style="fill:#FFFFFF;" points="462.907,396.317 467.717,404.189 96.693,485.95 100.36,479.163 458.096,396.317 "/>
<polygon style="fill:#E1E6E9;" points="475.055,380.666 124.231,460.55 109.31,473.742 110.597,481.724 488.101,393.624 
	490.725,383.931 "/>
<polygon style="fill:#EBF0F3;" points="392.516,232.619 40.501,303.985 108.896,474.146 490.725,383.931 "/>
<polygon style="fill:#44C4A1;" points="473.16,356.869 96.597,443.546 54.06,337.718 412.089,262.776 "/>
<g>
	<polygon style="fill:#64798A;" points="410.519,391.035 186.809,443.38 184.001,437.19 407.069,385.277 	"/>
	<polygon style="fill:#64798A;" points="255.941,288.711 140.204,312.791 137.76,307.491 253.178,283.601 	"/>
</g>
<polygon style="fill:#E56353;" points="102.418,297.797 73.607,303.671 67.277,326.469 90.505,343.659 119.936,337.426 
	125.514,314.368 "/>
<g>
	<polygon style="fill:#D5D6DB;" points="315.435,276.333 301.771,279.176 293.944,265.514 307.511,262.73 	"/>
	<polygon style="fill:#D5D6DB;" points="331.707,272.948 318.127,275.773 310.185,262.182 323.668,259.415 	"/>
	<polygon style="fill:#D5D6DB;" points="347.88,269.583 334.384,272.391 326.326,258.87 339.728,256.12 	"/>
	<polygon style="fill:#D5D6DB;" points="363.954,266.239 350.54,269.03 342.369,255.578 355.689,252.845 	"/>
	<polygon style="fill:#D5D6DB;" points="379.929,262.915 366.597,265.689 358.314,252.307 371.554,249.59 	"/>
	<polygon style="fill:#D5D6DB;" points="395.807,259.611 382.556,262.368 374.163,249.055 387.323,246.355 	"/>
</g>
<g>
	<polygon style="fill:#EBF0F3;" points="303.709,319.869 84.118,367.261 81.772,361.578 300.741,314.566 	"/>
	<polygon style="fill:#EBF0F3;" points="315.383,340.726 93.351,389.628 90.942,383.792 312.338,335.287 	"/>
	<polygon style="fill:#EBF0F3;" points="327.36,362.125 102.834,412.601 100.36,406.606 324.236,356.544 	"/>
	<polygon style="fill:#EBF0F3;" points="452.482,348.169 352.128,371.006 348.907,365.37 448.992,342.716 	"/>
	<polygon style="fill:#EBF0F3;" points="430.548,313.896 331.891,335.597 317.781,310.907 415.244,289.982 	"/>
</g>
<polygon style="fill:#E56353;" points="109.31,473.742 99.01,445.675 68.884,448.508 78.154,480.951 82.789,481.981 "/>
<g>
	<path style="fill:#F6C358;" d="M100.04,452.37l9.27,21.372c0,0,8.571,0.233,3.597-11.741c-4.974-11.974-14.412-23.02-14.412-23.02
		h-9.012"/>
	<path style="fill:#F6C358;" d="M73.514,459.311l9.275,22.671l1.545,7.725c0,0-17.604,7.239-25.153-10.542l-5.746-35.291
		l13.647-3.862"/>
</g>
<path style="fill:#FCD462;" d="M112.907,462l-54.06-130.13l-14.259-35.273c-4.256-17.631-48.556-6.938-44.3,10.693l12.206,35.474
	l46.687,136.399C54.429,458.647,102.225,445.713,112.907,462z"/>
<polygon style="fill:#64798A;" points="109.31,473.742 110.597,481.724 84.334,489.706 82.789,481.981 "/>
<polygon style="fill:#2F4859;" points="445.273,39.075 441.173,36.565 443.574,32.643 439.217,29.976 381.595,124.099 
	385.951,126.766 428.501,57.263 432.601,59.773 "/>
<g>
	<path style="fill:#64798A;" d="M420.066,77.793l-92.232,154.12l27.079,16.578l93.813-153.237
		C442.483,92.484,425.983,82.411,420.066,77.793z"/>
	<path style="fill:#64798A;" d="M271.116,345.833l-0.002,0.003c-1.698,2.773-2.963,5.788-3.754,8.941l-0.9,3.594
		c-0.244,0.973,0.172,1.991,1.028,2.515c0.855,0.524,1.952,0.431,2.707-0.228l2.788-2.431c2.453-2.14,4.565-4.641,6.265-7.417
		L271.116,345.833z"/>
</g>
<path style="fill:#3A556A;" d="M354.913,248.491l-27.079-16.578l-37.759,61.677c-1.439,2.351-2.792,4.758-3.982,7.244
	c-6.752,14.106-11.999,28.91-15.639,44.463c-0.092,0.394,0.081,0.81,0.425,1.02l8.053,4.93c0.339,0.208,0.78,0.179,1.089-0.072
	c12.28-9.959,23.197-21.493,32.825-34.52c1.446-1.955,2.786-4.005,4.056-6.079L354.913,248.491z"/>
<g>
	<path style="fill:#D5D6DB;" d="M333.851,221.858l-1.391,2.326c9.73,6.814,16.189,10.706,27.232,16.5l1.415-2.312
		C350.024,232.561,343.614,228.705,333.851,221.858z"/>
	<path style="fill:#D5D6DB;" d="M338.802,213.583l-1.391,2.326c9.775,6.848,16.239,10.747,27.312,16.556l1.415-2.312
		C355.028,224.327,348.61,220.465,338.802,213.583z"/>
	<path style="fill:#D5D6DB;" d="M343.754,205.309l-1.391,2.326c9.82,6.883,16.289,10.787,27.392,16.612l1.415-2.312
		C360.029,216.093,353.607,212.224,343.754,205.309z"/>
	<path style="fill:#D5D6DB;" d="M348.707,197.035l-1.393,2.326c9.864,6.918,16.339,10.827,27.472,16.669l1.415-2.312
		C365.03,207.859,358.604,203.985,348.707,197.035z"/>
	<path style="fill:#D5D6DB;" d="M353.659,188.76l-1.391,2.326c9.908,6.951,16.387,10.867,27.551,16.724l1.415-2.312
		C370.032,199.624,363.602,195.747,353.659,188.76z"/>
	<path style="fill:#D5D6DB;" d="M384.85,199.591l1.415-2.312c-11.231-5.89-17.667-9.773-27.655-16.795l-1.391,2.326
		C367.173,189.799,373.656,193.718,384.85,199.591z"/>
	<path style="fill:#D5D6DB;" d="M328.9,230.133c-0.018-0.013-0.038-0.027-0.058-0.041l-1.374,2.338
		c9.71,6.797,16.163,10.686,27.194,16.473l1.415-2.312C345.023,240.795,338.618,236.945,328.9,230.133z"/>
</g>
<g>
	<path style="fill:#3A556A;" d="M448.726,95.253l40.979-66.936l-38.04-2.995l-1.856,2.769l-29.743,49.702
		C425.983,82.411,442.483,92.484,448.726,95.253z"/>
	<path style="fill:#3A556A;" d="M489.743,27.654c-0.342-2.863-9.155-5.578-19.685-6.063c-10.53-0.486-18.786,1.443-18.444,4.306
		c0.342,2.863,9.155,5.578,19.685,6.064C481.829,32.447,490.085,30.518,489.743,27.654z"/>
</g>
<path style="fill:#2F4859;" d="M482.595,27.325c-0.214-1.79-5.722-3.486-12.304-3.79c-6.581-0.303-11.742,0.902-11.528,2.692
	c0.214,1.79,5.722,3.487,12.304,3.79C477.648,30.32,482.809,29.115,482.595,27.325z"/>
<path style="fill:#EBF0F3;" d="M474.309,1.318l-14.396,23.514l-0.979,1.599c0.599,1.711,5.81,3.294,12.133,3.586
	c4.016,0.185,7.485-0.197,9.544-0.925l1.463-2.39l9.186-15.005C493.803,7.545,476.85-2.833,474.309,1.318z"/>
<g>
</g>
<g>
</g>
<g>
</g>
<g>
</g>
<g>
</g>
<g>
</g>
<g>
</g>
<g>
</g>
<g>
</g>
<g>
</g>
<g>
</g>
<g>
</g>
<g>
</g>
<g>
</g>
<g>
</g>
</svg>
