<?xml version="1.0" encoding="iso-8859-1"?>
<!-- Generator: Adobe Illustrator 19.0.0, SVG Export Plug-In . SVG Version: 6.00 Build 0)  -->
<svg version="1.1" id="Capa_1" xmlns="http://www.w3.org/2000/svg" xmlns:xlink="http://www.w3.org/1999/xlink" x="0px" y="0px"
	 viewBox="0 0 461.845 461.845" style="enable-background:new 0 0 461.845 461.845;" xml:space="preserve">
<g>
	<g>
		<g>
			<path style="fill:#2BA037;" d="M461.845,335.935v57.992c0,17.312-14.035,31.347-31.347,31.347h-61.126V405.42
				c0.284-38.257,31.228-69.201,69.486-69.486H461.845L461.845,335.935z"/>
			<path style="fill:#3BB54A;" d="M461.845,241.371v94.563h-22.988c-38.257,0.284-69.201,31.228-69.486,69.486v19.853H92.473V405.42
				c-0.284-38.257-31.228-69.201-69.486-69.486H0v-94.041h22.988c38.46-0.287,69.487-31.547,69.486-70.008v-19.853h276.898v19.331
				c-0.001,38.461,31.025,69.721,69.486,70.008H461.845L461.845,241.371z"/>
			<g>
				<path style="fill:#2BA037;" d="M461.845,183.38v57.992h-22.988c-38.46-0.287-69.487-31.547-69.486-70.008v-19.331h61.126
					C447.81,152.033,461.845,166.067,461.845,183.38z"/>
				<path style="fill:#2BA037;" d="M92.473,423.184v2.09H31.347C14.035,425.273,0,411.239,0,393.927v-57.992h22.988
					c38.257,0.284,69.201,31.228,69.486,69.486V423.184z"/>
				<path style="fill:#2BA037;" d="M92.473,154.122v17.763c0.001,38.461-31.025,69.721-69.486,70.008H0V183.38
					c0-17.312,14.035-31.347,31.347-31.347h61.127V154.122z"/>
			</g>
		</g>
		<g>
			<path style="fill:#083863;" d="M409.6,109.714H52.245c-5.474,0.297-10.152-3.901-10.449-9.375c-0.019-0.358-0.019-0.716,0-1.074
				c0-5.771,4.678-10.449,10.449-10.449H409.6c5.771,0,10.449,4.678,10.449,10.449c0.297,5.474-3.901,10.152-9.375,10.449
				C410.316,109.734,409.958,109.734,409.6,109.714z"/>
			<path style="fill:#083863;" d="M357.355,57.469H104.49c-5.474,0.297-10.152-3.901-10.449-9.375c-0.019-0.358-0.019-0.716,0-1.074
				c0-5.771,4.678-10.449,10.449-10.449h252.865c5.771,0,10.449,4.678,10.449,10.449c0.297,5.474-3.901,10.152-9.375,10.449
				C358.071,57.489,357.713,57.489,357.355,57.469z"/>
		</g>
	</g>
	<circle style="fill:#2BA037;" cx="230.922" cy="288.392" r="100.833"/>
	<path style="fill:#FEDB41;" d="M266.449,251.82h-10.971c-1.045,0-2.612-5.224-4.18-5.224h15.151
		c5.771,0,10.449-4.678,10.449-10.449c0-5.771-4.678-10.449-10.449-10.449h-71.053c-5.771,0-10.449,4.678-10.449,10.449
		c0,5.771,4.678,10.449,10.449,10.449h20.376c7.314,0,13.584,0,17.241,5.224h-37.616c-5.771,0-10.449,4.678-10.449,10.449
		s4.678,10.449,10.449,10.449h37.616c-1.045,5.224-2.09,3.135-3.135,4.18c-3.73,3.813-8.776,6.056-14.106,6.269h-20.375
		c-4.495,0.172-8.43,3.072-9.927,7.314c-1.58,4.004-0.543,8.566,2.612,11.494l51.2,48.588c1.852,1.699,4.279,2.633,6.792,2.612
		c5.77-0.081,10.382-4.824,10.301-10.595c-0.038-2.685-1.107-5.252-2.987-7.169l-32.392-30.302
		c9.049-1.681,17.302-6.267,23.51-13.061c5.974-4.821,9.895-11.73,10.971-19.331h10.971c5.771,0,10.449-4.678,10.449-10.449
		S272.22,251.82,266.449,251.82z"/>
</g>
<g>
</g>
<g>
</g>
<g>
</g>
<g>
</g>
<g>
</g>
<g>
</g>
<g>
</g>
<g>
</g>
<g>
</g>
<g>
</g>
<g>
</g>
<g>
</g>
<g>
</g>
<g>
</g>
<g>
</g>
</svg>
